<svg xmlns="http://www.w3.org/2000/svg" version="1.0" viewBox="0 0 1000 1000"><path fill="#004080" stroke="#004080" stroke-width=".2" d="M0 500v500h1000V0H0zm650.1-163.4 9.6.7 9 29.1c7.6 24.4 8.8 29.1 7.4 29.3-.9.1-27.5.4-59.1.6-64.3.5-64.8.5-79.6 8-17.9 9-26.9 19.7-37.7 44.7-2 4.6-3.9 15.3-3.1 17.4.7 1.8 2.3 1.8 61.4 2l27.5.1.6-25c.3-13.8.7-27.6.8-30.8l.1-5.7h77.7l.7 7.7c.3 4.2.6 52.5.6 107.5V622h-80v-97h-47c-44.8 0-47 .1-47 1.8 0 4 4.3 25.4 7.6 38.1 5.8 22.2 13 39.8 21.6 52.5 3.3 4.8 3.8 6 2.7 7-.8.7-13.7 9.3-28.8 19-22.9 15-27.5 17.6-28.7 16.5-1.8-1.9-13.2-26.9-19.7-43.5-19.7-49.9-28.6-93.9-27.4-134.4 1.2-40.6 12.5-70.3 36.2-94.9 11-11.3 22.7-19.7 39-27.7 24.6-12.1 53.2-19.2 89-22.3 12.3-1 53.6-1.3 66.6-.5zm138.1.4H800v223.7l52 .5c28.6.2 52.2.7 52.5.9.2.3-2.2 11.5-5.4 25-3.2 13.4-6.4 26.8-7.1 29.6l-1.2 5.3H728V335.7l24.2.6c13.3.4 29.5.7 36 .7zm-588.3 43.5c23.2 31.6 31.6 42.3 32.5 41.6.7-.6 16.1-19.7 34.2-42.5l32.9-41.5 37.3-.1H374l-.2 142.2-.3 142.3h-71L302 535l-.5-87.6-33.5 39.8c-18.4 21.9-33.8 39.8-34.2 39.8s-15.5-18.2-33.5-40.5L167.5 446l-.6 45.7c-.3 25.2-.7 65-.8 88.5L166 623H94V338h74.5z"/><path fill="#404080" stroke="#404080" stroke-width=".2" d="M593.8 336.7c.7.3 1.6.2 1.9-.1.4-.3-.2-.6-1.3-.5-1.1 0-1.4.3-.6.6zm51 0c.7.3 1.6.2 1.9-.1.4-.3-.2-.6-1.3-.5-1.1 0-1.4.3-.6.6zm108.5 0c1.5.2 3.7.2 5 0 1.2-.2 0-.4-2.8-.4-2.7 0-3.8.2-2.2.4zm-186.5 60c1.8.2 4.5.2 6 0s0-.4-3.3-.4-4.5.2-2.7.4zm39.5 11c10.8.2 28.6.2 39.5 0 10.8-.1 1.9-.2-19.8-.2s-30.6.1-19.7.2zm-90.4 12-2.4 2.8 2.8-2.4c2.5-2.3 3.2-3.1 2.4-3.1-.2 0-1.4 1.2-2.8 2.7zm149.5 25.8c0 15.9.2 22.3.3 14.2.2-8.2.2-21.2 0-29-.1-7.8-.3-1.2-.3 14.8zm-433.5-22.8c-1.3 1.6-1.2 1.7.4.4.9-.7 1.7-1.5 1.7-1.7 0-.8-.8-.3-2.1 1.3zm354.4 5.3c0 2.5.2 3.5.4 2.2.2-1.2.2-3.2 0-4.5-.2-1.2-.4-.2-.4 2.3zm-90.2 32.6c0 1.1.3 1.4.6.6.3-.7.2-1.6-.1-1.9-.3-.4-.6.2-.5 1.3zm24.6 8.1c1.8.2 5 .2 7 0 2.1-.2.7-.4-3.2-.4-3.8 0-5.5.2-3.8.4zm20.1 0c1.2.2 3 .2 4 0 .9-.3-.1-.5-2.3-.4-2.2 0-3 .2-1.7.4zM166.4 504c0 12.9.2 18.2.3 11.7.2-6.4.2-17 0-23.5-.1-6.4-.3-1.1-.3 11.8zm697.8 57.7c3.7.2 10 .2 14 0 4-.1 1-.3-6.7-.3s-11 .1-7.3.3zm-752.4 61c10 .2 26.4.2 36.5 0 10-.1 1.8-.2-18.3-.2s-28.3.1-18.2.2zm208.5 0c9.7.2 25.7.2 35.5 0 9.7-.1 1.7-.2-17.8-.2s-27.5.1-17.7.2z"/><path fill="#408080" stroke="#408080" stroke-width=".2" d="M514.3 468.7c.9.2 2.3.2 3 0 .6-.3-.1-.5-1.8-.5-1.6 0-2.2.2-1.2.5z"/><path fill="#4080BF" stroke="#4080BF" stroke-width=".2" d="M746.3 336.7c.9.2 2.3.2 3 0 .6-.3-.1-.5-1.8-.5-1.6 0-2.2.2-1.2.5zm49 1c.9.2 2.3.2 3 0 .6-.3-.1-.5-1.8-.5-1.6 0-2.2.2-1.2.5zM373.5 480.5c0 78.1.1 109.9.2 70.7.2-39.3.2-103.2 0-142-.1-38.9-.2-6.8-.2 71.3zm212.7-45c0 1.6.2 2.2.5 1.2.2-.9.2-2.3 0-3-.3-.6-.5.1-.5 1.8zM166.4 465c0 8.5.2 12 .3 7.7.2-4.2.2-11.2 0-15.5-.1-4.2-.3-.7-.3 7.8zm342.9 3.7c.9.2 2.3.2 3 0 .6-.3-.1-.5-1.8-.5-1.6 0-2.2.2-1.2.5zm73.5 1c.7.3 1.6.2 1.9-.1.4-.3-.2-.6-1.3-.5-1.1 0-1.4.3-.6.6zm82.6 24.3c0 10.7.2 15.1.3 9.7.2-5.3.2-14.1 0-19.5-.1-5.3-.3-.9-.3 9.8zm-78.9 79c0 26.7.1 37.6.2 24.2.2-13.3.2-35.1 0-48.5-.1-13.3-.2-2.4-.2 24.3zm256.8-11.3c2.6.2 6.8.2 9.5 0 2.6-.2.4-.3-4.8-.3s-7.4.1-4.7.3z"/><path fill="#8080BF" stroke="#8080BF" stroke-width=".2" d="M600.8 336.7c1.2.2 3 .2 4 0 .9-.3-.1-.5-2.3-.4-2.2 0-3 .2-1.7.4zm34 0c1.2.2 3.2.2 4.5 0 1.2-.2.2-.4-2.3-.4s-3.5.2-2.2.4zm101 0c1.7.2 4.7.2 6.5 0 1.7-.2.3-.4-3.3-.4s-5 .2-3.2.4zm-152 1c.7.3 1.6.2 1.9-.1.4-.3-.2-.6-1.3-.5-1.1 0-1.4.3-.6.6zm72.2-.3c0 .2.9.6 2 .9s1.8.1 1.4-.4c-.5-.9-3.4-1.3-3.4-.5zm128.8.3c1.7.2 4.7.2 6.5 0 1.7-.2.3-.4-3.3-.4s-5 .2-3.2.4zm-323.9 44c-1.3 1.6-1.2 1.7.4.4s2.1-2.1 1.3-2.1c-.2 0-1 .8-1.7 1.7zm-9 9c-1.3 1.6-1.2 1.7.4.4.9-.7 1.7-1.5 1.7-1.7 0-.8-.8-.3-2.1 1.3zm108.9 6c.7.3 1.6.2 1.9-.1.4-.3-.2-.6-1.3-.5-1.1 0-1.4.3-.6.6zm-42.9 20c-1.3 1.6-1.2 1.7.4.4.9-.7 1.7-1.5 1.7-1.7 0-.8-.8-.3-2.1 1.3zm-6 7c-1.3 1.6-1.2 1.7.4.4.9-.7 1.7-1.5 1.7-1.7 0-.8-.8-.3-2.1 1.3zm74.4 19.3c0 3 .2 4.3.4 2.7.2-1.5.2-3.9 0-5.5-.2-1.5-.4-.2-.4 2.8zm-420.2 4.7c.2 2.4.2 2.5.6.5.3-1.3.9-1.9 1.5-1.6.7.4.8.2.4-.4-1.3-2.1-2.6-1.3-2.5 1.5zM302.5 534c0 48.7.1 68.6.2 44.2.2-24.3.2-64.1 0-88.5-.1-24.3-.2-4.4-.2 44.3zm192.6-67.4c0 1.1.3 1.4.6.6.3-.7.2-1.6-.1-1.9-.3-.4-.6.2-.5 1.3zm4.7 2.1c1.8.2 4.5.2 6 0s0-.4-3.3-.4-4.5.2-2.7.4zm71.9 1c1.8.2 5 .2 7 0 2.1-.2.7-.4-3.2-.4-3.8 0-5.5.2-3.8.4zm-152.5 7.8c0 1.6.2 2.2.5 1.2.2-.9.2-2.3 0-3-.3-.6-.5.1-.5 1.8zm0 23c0 1.6.2 2.2.5 1.2.2-.9.2-2.3 0-3-.3-.6-.5.1-.5 1.8zm246.3 51c0 21.4.1 30.1.2 19.2.2-10.9.2-28.5 0-39-.1-10.6-.2-1.7-.2 19.8zm-150.7-26.8c13.4.2 35 .2 48 0 13-.1 2.1-.2-24.3-.2s-37.1.1-23.7.2zm296.5 37c5.4.2 13.9.2 19 0 5.1-.1.7-.3-9.8-.3-10.4 0-14.6.2-9.2.3z"/><path fill="#80BFBF" stroke="#80BFBF" stroke-width=".2" d="M606.8 336.7c.7.3 1.6.2 1.9-.1.4-.3-.2-.6-1.3-.5-1.1 0-1.4.3-.6.6zm24 0c.7.3 1.6.2 1.9-.1.4-.3-.2-.6-1.3-.5-1.1 0-1.4.3-.6.6zm100 0c.7.3 1.6.2 1.9-.1.4-.3-.2-.6-1.3-.5-1.1 0-1.4.3-.6.6zm49 1c.7.3 1.6.2 1.9-.1.4-.3-.2-.6-1.3-.5-1.1 0-1.4.3-.6.6zm19.7 111.7c0 98.6.2 112 1.5 112.3 1.1.3 1.2.2.3-.4-1-.7-1.3-24.8-1.6-112.4l-.2-111.4zm-213.4.2c0 1.1.3 1.4.6.6.3-.7.2-1.6-.1-1.9-.3-.4-.6.2-.5 1.3zm-20.3 20.1c.6.2 1.8.2 2.5 0 .6-.3.1-.5-1.3-.5s-1.9.2-1.2.5zm99.6 129.8c0 5.5.1 7.6.3 4.7s.2-7.4 0-10-.3-.2-.3 5.3zm-59.1 22.2c10.8.2 28.6.2 39.5 0 10.8-.1 1.9-.2-19.8-.2s-30.6.1-19.7.2z"/><path fill="#BFBFBF" stroke="#BFBFBF" stroke-width=".2" d="M614.3 336.7c3.2.2 8.1.2 11 0s.3-.3-5.8-.3c-6 0-8.4.1-5.2.3zm114.2.5c-.3.7-.4 65-.3 142.8l.3 141.5H890l-80.5-.2-80.5-.3.2-142.5c.2-78.4.2-142.5 0-142.5-.1 0-.5.6-.7 1.2zm-140.7.5c.6.2 1.8.2 2.5 0 .6-.3.1-.5-1.3-.5s-1.9.2-1.2.5zm62.5 0c.9.2 2.5.2 3.5 0 .9-.3.1-.5-1.8-.5s-2.7.2-1.7.5zm118 0c2 .2 5.4.2 7.5 0 2-.2.3-.4-3.8-.4s-5.8.2-3.7.4zm-673.8 1.5c-.3.7-.4 64.7-.3 142.3l.3 141 .3-141.8L95 339h36.3c27.6 0 36.6.3 37.7 1.2 1.2 1.1 1.2 1 .1-.5-1.2-1.6-4.2-1.7-37.8-1.7-28.2 0-36.5.3-36.8 1.2zm204.4.5c-1.2 1.6-1.2 1.7.2.6 1.2-1 10.9-1.3 38-1.6l36.4-.2-36.6-.3c-33.9-.2-36.8-.1-38 1.5zm276.9-1c.6.2 1.8.2 2.5 0 .6-.3.1-.5-1.3-.5s-1.9.2-1.2.5zm-280.9 6c-1.3 1.6-1.2 1.7.4.4.9-.7 1.7-1.5 1.7-1.7 0-.8-.8-.3-2.1 1.3zM173 346.4c0 .2.8 1 1.8 1.7 1.5 1.3 1.6 1.2.3-.4s-2.1-2.1-2.1-1.3zm117.9 3.3c-1.3 1.6-1.2 1.7.4.4.9-.7 1.7-1.5 1.7-1.7 0-.8-.8-.3-2.1 1.3zm-4 5c-1.3 1.6-1.2 1.7.4.4.9-.7 1.7-1.5 1.7-1.7 0-.8-.8-.3-2.1 1.3zm-7 9c-1.3 1.6-1.2 1.7.4.4s2.1-2.1 1.3-2.1c-.2 0-1 .8-1.7 1.7zm-92.9 1.7c0 .2.8 1 1.8 1.7 1.5 1.3 1.6 1.2.3-.4s-2.1-2.1-2.1-1.3zm88.9 3.3c-1.3 1.6-1.2 1.7.4.4.9-.7 1.7-1.5 1.7-1.7 0-.8-.8-.3-2.1 1.3zm-4 5c-1.3 1.6-1.2 1.7.4.4.9-.7 1.7-1.5 1.7-1.7 0-.8-.8-.3-2.1 1.3zm-4 5c-1.3 1.6-1.2 1.7.4.4s2.1-2.1 1.3-2.1c-.2 0-1 .8-1.7 1.7zm196.5.5-1.9 2.3 2.3-1.9c1.2-1.1 2.2-2.1 2.2-2.3 0-.8-.8-.2-2.6 1.9zm-200.5 4.5c-1.3 1.6-1.2 1.7.4.4.9-.7 1.7-1.5 1.7-1.7 0-.8-.8-.3-2.1 1.3zm192.5 2.5-1.9 2.3 2.3-1.9c2.1-1.8 2.7-2.6 1.9-2.6-.2 0-1.2 1-2.3 2.2zm-196.5 2.5c-1.3 1.6-1.2 1.7.4.4.9-.7 1.7-1.5 1.7-1.7 0-.8-.8-.3-2.1 1.3zm-55.9-.3c0 .2.8 1 1.8 1.7 1.5 1.3 1.6 1.2.3-.4s-2.1-2.1-2.1-1.3zm51.9 5.3c-1.3 1.6-1.2 1.7.4.4s2.1-2.1 1.3-2.1c-.2 0-1 .8-1.7 1.7zm193.5.5-1.9 2.3 2.3-1.9c2.1-1.8 2.7-2.6 1.9-2.6-.2 0-1.2 1-2.3 2.2zm108.1 1.7c-2.9.6 33.5.3 38.5-.3 1.4-.2-6-.3-16.5-.3-10.4 0-20.3.2-22 .6zm-305.6 2.8c-1.3 1.6-1.2 1.7.4.4.9-.7 1.7-1.5 1.7-1.7 0-.8-.8-.3-2.1 1.3zm292.9.7c-9.3 3.3-18.3 8.6-24.8 14.6l-5.5 5.1 6.8-5.4c8.4-6.7 15-10.3 25.2-13.9 4.4-1.5 7.3-2.7 6.5-2.7s-4.5 1-8.2 2.3zm-299.9 8.3c-1.3 1.6-1.2 1.7.4.4.9-.7 1.7-1.5 1.7-1.7 0-.8-.8-.3-2.1 1.3zm-26.9-.3c0 .2.8 1 1.8 1.7 1.5 1.3 1.6 1.2.3-.4s-2.1-2.1-2.1-1.3zm369.3 6.1c0 3.3.2 4.5.4 2.7s.2-4.5 0-6-.4 0-.4 3.3zm-346.4-.8c-1.3 1.6-1.2 1.7.4.4.9-.7 1.7-1.5 1.7-1.7 0-.8-.8-.3-2.1 1.3zm-4 5c-1.3 1.6-1.2 1.7.4.4.9-.7 1.7-1.5 1.7-1.7 0-.8-.8-.3-2.1 1.3zm276.6 3.1c-1.3.8-5.8 7.2-5.2 7.2.2 0 1.8-1.8 3.6-4 3.2-4 3.5-4.6 1.6-3.2zM233 422.5c-.7.8-1.7 1.2-2.3.8s-.7-.1-.3.6c.6.9 1.3.8 2.7-.5 1-.9 1.9-1.9 1.9-2.1 0-.7-.8-.2-2 1.2zM503.7 435c-.8 2.2-1.4 4-1.1 4 .2 0 1.3-1.8 2.4-4s1.6-4 1.2-4c-.5 0-1.6 1.8-2.5 4zm-203.8 12.7-2.4 2.8 2.8-2.4c2.5-2.3 3.2-3.1 2.4-3.1-.2 0-1.4 1.2-2.8 2.7zm198 1c-.5 1.6-1.4 3.9-1.9 5.3s-1.1 5-1.4 8l-.5 5.5 1.4-6.5c.7-3.6 2.1-8.4 2.9-10.8.8-2.3 1.3-4.2 1-4.2-.2 0-.9 1.2-1.5 2.7zM169 447.4c0 .2.8 1 1.8 1.7 1.5 1.3 1.6 1.2.3-.4s-2.1-2.1-2.1-1.3zm417.3 9.6c0 3.6.2 5 .4 3.2.2-1.7.2-4.7 0-6.5-.2-1.7-.4-.3-.4 3.3zM173 452.4c0 .2.8 1 1.8 1.7 1.5 1.3 1.6 1.2.3-.4s-2.1-2.1-2.1-1.3zm120.9 2.3c-1.3 1.6-1.2 1.7.4.4s2.1-2.1 1.3-2.1c-.2 0-1 .8-1.7 1.7zM178 458.4c0 .2.8 1 1.8 1.7 1.5 1.3 1.6 1.2.3-.4s-2.1-2.1-2.1-1.3zm110.4 2.8-1.9 2.3 2.3-1.9c2.1-1.8 2.7-2.6 1.9-2.6-.2 0-1.2 1-2.3 2.2zm132.7-.6c0 1.1.3 1.4.6.6.3-.7.2-1.6-.1-1.9-.3-.4-.6.2-.5 1.3zM182 463.4c0 .2.8 1 1.8 1.7 1.5 1.3 1.6 1.2.3-.4s-2.1-2.1-2.1-1.3zm101.4 3.8-1.9 2.3 2.3-1.9c2.1-1.8 2.7-2.6 1.9-2.6-.2 0-1.2 1-2.3 2.2zm136.7 1.4c0 1.1.3 1.4.6.6.3-.7.2-1.6-.1-1.9-.3-.4-.6.2-.5 1.3zm-234.1-.2c0 .2.8 1 1.8 1.7 1.5 1.3 1.6 1.2.3-.4s-2.1-2.1-2.1-1.3zm355.8 1.3c.6.2 1.8.2 2.5 0 .6-.3.1-.5-1.3-.5s-1.9.2-1.2.5zm12.5 0c2 .2 5.4.2 7.5 0 2-.2.3-.4-3.8-.4s-5.8.2-3.7.4zm-276.4 4c-1.3 1.6-1.2 1.7.4.4s2.1-2.1 1.3-2.1c-.2 0-1 .8-1.7 1.7zm-86.4 1.3c1 1.1 2 2 2.3 2s-.3-.9-1.3-2-2-2-2.3-2 .3.9 1.3 2zm80.9 5.2-1.9 2.3 2.3-1.9c2.1-1.8 2.7-2.6 1.9-2.6-.2 0-1.2 1-2.3 2.2zm-77.4-.8c0 .2.8 1 1.8 1.7 1.5 1.3 1.6 1.2.3-.4s-2.1-2.1-2.1-1.3zm224.3 9.6c0 4.1.2 5.8.4 3.7.2-2 .2-5.4 0-7.5-.2-2-.4-.3-.4 3.8zM199 484.4c0 .2.8 1 1.8 1.7 1.5 1.3 1.6 1.2.3-.4s-2.1-2.1-2.1-1.3zm68.4 1.8-1.9 2.3 2.3-1.9c2.1-1.8 2.7-2.6 1.9-2.6-.2 0-1.2 1-2.3 2.2zm-64.4 3.2c0 .2.8 1 1.8 1.7 1.5 1.3 1.6 1.2.3-.4s-2.1-2.1-2.1-1.3zm58.9 3.3c-1.3 1.6-1.2 1.7.4.4s2.1-2.1 1.3-2.1c-.2 0-1 .8-1.7 1.7zm-53.4 3.3c1 1.1 2 2 2.3 2s-.3-.9-1.3-2-2-2-2.3-2 .3.9 1.3 2zm47.9 3.2-1.9 2.3 2.3-1.9c1.2-1.1 2.2-2.1 2.2-2.3 0-.8-.8-.2-2.6 1.9zm-44.4 1.2c0 .2.8 1 1.8 1.7 1.5 1.3 1.6 1.2.3-.4s-2.1-2.1-2.1-1.3zm39.4 4.8-1.9 2.3 2.3-1.9c2.1-1.8 2.7-2.6 1.9-2.6-.2 0-1.2 1-2.3 2.2zm-35.4.2c0 .2.8 1 1.8 1.7 1.5 1.3 1.6 1.2.3-.4s-2.1-2.1-2.1-1.3zm204.2 4.6c0 1.4.2 1.9.5 1.2.2-.6.2-1.8 0-2.5-.3-.6-.5-.1-.5 1.3zm-200.2.4c0 .2.8 1 1.8 1.7 1.5 1.3 1.6 1.2.3-.4s-2.1-2.1-2.1-1.3zm25.9 1.3c-1.3 1.6-1.2 1.7.4.4.9-.7 1.7-1.5 1.7-1.7 0-.8-.8-.3-2.1 1.3zm-20.4 5.3c1 1.1 2 2 2.3 2s-.3-.9-1.3-2-2-2-2.3-2 .3.9 1.3 2zm14.9 1.2-1.9 2.3 2.3-1.9c2.1-1.8 2.7-2.6 1.9-2.6-.2 0-1.2 1-2.3 2.2zm180.7 1.4c0 1.1.3 1.4.6.6.3-.7.2-1.6-.1-1.9-.3-.4-.6.2-.5 1.3zM229 521.4c0 .2.8 1 1.8 1.7 1.5 1.3 1.6 1.2.3-.4s-2.1-2.1-2.1-1.3zm5.9 3.3-2.4 2.8 2.8-2.4c2.5-2.3 3.2-3.1 2.4-3.1-.2 0-1.4 1.2-2.8 2.7zm256.2 4.9c0 1.1.3 1.4.6.6.3-.7.2-1.6-.1-1.9-.3-.4-.6.2-.5 1.3zm-325.7 59.9c0 18.1.2 25.7.3 16.8.2-8.9.2-23.7 0-33-.1-9.2-.3-2-.3 16.2zM665.3 615c0 3.6.2 5 .4 3.2.2-1.7.2-4.7 0-6.5-.2-1.7-.4-.3-.4 3.3z"/><path fill="#FFF" stroke="#FFF" stroke-width=".2" d="M582.5 338.1c-86.9 8.6-136.1 40-155.4 99-8.2 25.1-9.3 62.6-3 98.4 6.1 33.9 20.9 78.5 37.1 111.8l6.3 12.9 28-18.3c15.4-10 28.1-18.3 28.3-18.5.2-.1-1.3-2.4-3.2-5.2-8.2-11.4-16-30.3-22.1-53.7-3.4-13-7.5-33.8-7.5-38.2V524h96v97h78V408h-76.7l-.6 8.2c-.4 4.6-.7 16.2-.7 25.8s-.3 19.9-.7 22.8l-.6 5.4-45.1-.7c-31.5-.5-45.3-1.1-45.9-1.9-1.5-2.1 2-19.6 4.4-21.6.3-.3 1.8-3.8 3.3-7.8 1.5-3.9 3.1-7.2 3.5-7.2.3 0 1.5-1.7 2.6-3.7 2.7-5 14-16.3 20.6-20.5s19.4-9.2 27.2-10.7c4-.7 24.2-.8 63.3-.4 49.3.5 57.4.4 56.9-.8-.2-.8-4.3-13.7-9-28.8-4.6-15-8.7-27.6-9.1-28-.9-1-66-1-75.9 0zM729 479v142h161l.5-2.3c9.2-38.1 13.5-56.1 13.5-56.3s-23.6-.4-52.5-.4H799V338.3l-25.7-.6c-14.1-.4-29.8-.7-35-.7H729zm-634 1.5V622h69.7l.6-48.8c.4-26.8.7-66.8.7-89 0-22.1.3-40.2.8-40.1.4 0 15.5 18.4 33.7 40.9 18.1 22.4 33.3 40.6 33.7 40.4.3-.2 15.9-18.5 34.5-40.6l33.8-40.1.3 88.6.2 88.7h70V339h-72.8L266 382c-18.9 23.7-34.5 42.8-34.8 42.5-.3-.2-14.6-19.5-31.7-42.7l-31.2-42.3-36.7-.3L95 339z"/></svg>