<?xml version="1.0" standalone="no"?>
<!DOCTYPE svg PUBLIC "-//W3C//DTD SVG 20010904//EN"
 "http://www.w3.org/TR/2001/REC-SVG-20010904/DTD/svg10.dtd">
<svg version="1.0" xmlns="http://www.w3.org/2000/svg"
 width="1000.000000pt" height="1000.000000pt" viewBox="0 0 1000.000000 1000.000000"
 preserveAspectRatio="xMidYMid meet">

<g transform="translate(0.000000,1000.000000) scale(0.100000,-0.100000)"
fill="#000000" stroke="none">
<path d="M0 5000 l0 -5000 5000 0 5000 0 0 5000 0 5000 -5000 0 -5000 0 0
-5000z m6505 1631 l90 -6 90 -290 91 -290 -596 -6 c-665 -6 -648 -4 -805 -79
-189 -91 -306 -234 -385 -467 -16 -50 -30 -109 -30 -130 l0 -40 143 -6 c78 -4
280 -7 450 -7 l307 0 0 123 c0 68 3 206 7 305 l6 182 387 0 387 0 6 -502 c4
-277 7 -758 7 -1071 l0 -567 -397 2 -398 3 -3 483 -2 482 -470 0 -470 0 0 -22
c0 -37 29 -195 60 -323 55 -230 135 -435 220 -563 28 -41 47 -79 43 -82 -12
-10 -532 -349 -555 -361 -17 -9 -25 3 -87 133 -257 537 -411 1126 -411 1574 0
680 308 1141 915 1369 198 74 481 132 755 154 126 10 519 11 645 2z m1483 -7
c9 -3 12 -235 12 -1117 l0 -1114 523 -7 c287 -4 523 -8 524 -9 0 -1 -31 -136
-70 -299 l-71 -298 -813 0 -813 0 0 1430 0 1430 348 -6 c191 -3 353 -7 360
-10z m-5988 -434 c173 -235 317 -426 320 -423 3 2 156 194 340 426 l336 422
369 0 370 0 3 -1417 2 -1418 -360 0 -360 0 -2 875 -3 874 -335 -399 c-184
-219 -338 -399 -341 -400 -3 0 -154 183 -335 407 l-329 407 -6 -200 c-4 -109
-7 -506 -8 -881 l-1 -683 -360 0 -360 0 0 1420 0 1420 373 -1 372 0 315 -429z"/>
</g>
</svg>
